# xmcd CD database file
#
# Track frame offsets:
#	150
#	24522
#	49127
#	71055
#	91482
#	112257
#	138017
#	164055
#	186772
#	212110
#	235640
#	259712
#	296447
#
# Disc length: 4440 seconds
#
# Revision: 1
# Processed by: cddbd v1.5.1PL0 Copyright (c) Steve Scherf et al.
# Submitted via: CDex 1.51
#
DISCID=bf11560d
DTITLE=浜崎あゆみ - MY STORY Classical
DYEAR=2005
DGENRE=JPop
TTITLE0=WONDERLAND
TTITLE1=Moments
TTITLE2=HAPPY ENDING
TTITLE3=GAME
TTITLE4=HOPE or PAIN
TTITLE5=Kaleidescope
TTITLE6=CAROLS
TTITLE7=waking proud
TTITLE8=Catcher In The Light
TTITLE9=HONEY
TTITLE10=winding road
TTITLE11=A Song is born
TTITLE12=CCCD
EXTD=YEAR: 2005
EXTT0=
EXTT1=
EXTT2=
EXTT3=
EXTT4=
EXTT5=
EXTT6=
EXTT7=
EXTT8=
EXTT9=
EXTT10=
EXTT11=
EXTT12=
PLAYORDER=
